PathFileType	4	(X/Y/Z)	C:\Documents and Settings\mvidt\Desktop\Forward_reach_ACS_12-5-11\acs_static-redo2.trc
DataRate	CameraRate	NumFrames	NumMarkers	Units	OrigDataRate	OrigDataStartFrame	OrigNumFrames
200.00	200.00	      22	10	mm	200.00	1501	      2000
Frame#	Time	R.Clavicle			C7			R.Shoulder			R.Bicep			R.Elbow.Lateral			R.Forearm			R.Radius			Handle			R.Elbow.Medial			R.Ulna			
		X1	Y1	Z1	X2	Y2	Z2	X3	Y3	Z3	X4	Y4	Z4	X5	Y5	Z5	X6	Y6	Z6	X7	Y7	Z7	X8	Y8	Z8	X9	Y9	Z9	X10	Y10	Z10	

1501	7.500	-143.01601	356.81427	258.47110	-235.95201	383.26266	389.05228	-165.68596	203.94240	310.45242	-58.53854	207.55901	155.25308	-31.71590	178.60559	41.29139	73.06731	199.16512	82.75509	229.87692	228.57623	95.28702	356.00348	242.31378	123.40975	-45.79832	263.90915	27.63583	228.98018	237.52908	10.36385	
1502	7.505	-142.08397	357.92776	258.21042	-235.78629	383.90747	389.05151	-165.26601	204.21364	310.45056	-58.36177	207.16827	155.46303	-31.71590	178.60559	41.29139	73.30564	199.69432	83.29717	228.83104	229.63229	96.26260	355.62634	244.23732	124.88721	-45.79832	263.90915	27.63583	229.06834	237.01176	11.18505	
1503	7.510	-142.08397	357.92776	258.21042	-235.51923	384.45456	388.90189	-165.74251	205.35008	311.58810	-57.63361	208.48404	154.73091	-31.71590	178.60559	41.29139	72.69519	200.04805	82.95188	227.77338	230.39548	96.95104	354.58371	245.26535	125.25080	-45.79832	263.90915	27.63583	228.86501	236.95592	11.52204	
1504	7.515	-141.53882	358.31775	258.02844	-235.80098	385.39212	388.72205	-165.36725	206.18219	311.63028	-57.94717	208.24141	155.74994	-31.71590	178.60559	41.29139	72.50568	200.29884	82.72721	227.59877	230.08363	97.43684	354.07977	245.92377	126.61117	-46.06963	263.68744	26.91775	228.71741	236.83397	12.20748	
1505	7.520	-141.79781	358.82034	257.63373	-235.30174	384.98495	388.33112	-165.33168	206.88438	311.84888	-58.81046	208.08508	155.42245	-32.46304	177.27084	41.63905	72.82413	200.87602	84.08210	227.33566	230.55119	97.66958	353.64160	246.56079	127.81456	-46.90172	263.22733	26.19150	228.34758	237.40784	12.65315	
1506	7.525	-141.61734	358.74042	257.92322	-235.55820	385.81668	388.65057	-165.48920	207.76677	311.96854	-59.21869	208.23305	155.09853	-32.46304	177.27084	41.63905	72.87124	202.24998	84.78685	227.22777	231.98439	98.33424	352.98550	247.86479	128.80479	-46.90172	263.22733	26.19150	228.52623	237.21948	12.88981	
1507	7.530	-141.77118	358.85339	257.35306	-234.92461	386.81326	388.56238	-165.50761	208.26428	311.97794	-58.52442	210.58705	155.65210	-32.46304	177.27084	41.63905	72.12772	202.60005	84.54818	226.72560	233.23158	99.21503	352.11652	249.33478	128.90086	-47.64901	262.79279	25.39468	228.37256	236.96674	13.68615	
1508	7.535	-141.84886	359.19653	257.50177	-234.91093	386.94882	388.45993	-165.02269	208.23582	312.33243	-58.13951	212.09225	155.01862	-33.47723	175.81548	42.41913	71.26827	202.39882	85.06214	226.75607	235.67220	100.79952	351.98813	250.78189	130.81609	-46.90172	263.22733	26.19150	227.90424	237.74232	14.35025	
1509	7.540	-141.97591	359.34290	256.65106	-234.66824	387.37338	388.38846	-165.25276	208.77788	312.35016	-58.13951	212.09225	155.01862	-33.47723	175.81548	42.41913	71.03062	201.87682	85.57352	226.53465	236.39577	101.37052	351.90500	251.91663	131.45930	-49.38392	261.10446	23.94206	227.70099	237.68677	14.68670	
1510	7.545	-141.82228	359.22955	257.22107	-234.27826	387.63385	387.97842	-165.12729	209.19069	312.25259	-57.35398	212.96469	154.52850	-33.47723	175.81548	42.41913	70.65527	202.65982	85.67098	226.53465	236.39577	101.37052	350.74411	252.50446	132.46999	-49.38392	261.10446	23.94206	228.04060	237.70404	15.63831	
1511	7.550	-140.87155	360.54596	257.53094	-234.08401	387.82297	388.08200	-164.98315	209.07767	311.13028	-58.57296	211.08618	154.73309	-32.97021	175.30592	42.51849	70.05070	202.52675	84.90736	224.87570	235.64064	101.19698	350.63104	254.22194	133.12119	-49.25445	260.92944	23.63068	228.09625	238.05107	15.67740	
1512	7.555	-140.93388	360.65784	256.77536	-233.57123	388.41574	387.25687	-164.50894	209.34645	311.50076	-58.74498	211.69910	154.75290	-33.47723	175.81548	42.41913	70.05070	202.52675	84.90736	224.40352	235.84944	101.34055	349.51089	255.23593	134.33720	-49.25445	260.92944	23.63068	228.09625	238.05107	15.67740	
1513	7.560	-140.93388	360.65784	256.77536	-234.09279	389.01669	388.01846	-164.89798	210.77513	313.45129	-58.78344	212.20428	154.47839	-33.47723	175.81548	42.41913	70.05070	202.52675	84.90736	224.25191	236.72530	101.86408	349.24808	255.85303	134.23190	-49.25445	260.92944	23.63068	228.60440	238.52760	16.43683	
1514	7.565	-140.93388	360.65784	256.77536	-233.73904	389.51569	388.02008	-164.67300	211.03394	313.38077	-59.30901	211.01805	154.13644	-33.47723	175.81548	42.41913	69.40710	202.35558	86.21078	224.86235	238.78964	102.90041	348.92398	256.32776	134.62593	-49.27475	260.93921	23.29868	228.64503	238.70401	16.71857	
1515	7.570	-139.37939	363.02014	259.41608	-233.53252	389.89435	387.52307	-164.81354	211.31804	313.44806	-58.78344	212.20428	154.47839	-33.47723	175.81548	42.41913	70.01270	203.15245	86.59267	224.15828	240.14040	103.60178	348.23923	258.34085	135.61407	-49.57839	261.32681	23.55173	228.45982	239.07109	16.77090	
1516	7.575	-139.37939	363.02014	259.41608	-233.40361	390.09586	387.50632	-164.45331	211.21516	313.49075	-58.56358	212.97400	154.05505	-33.61948	176.15526	42.70468	69.04289	202.81593	86.85183	223.10374	238.76175	102.95071	347.53421	259.07968	136.07405	-49.27475	260.93921	23.29868	228.51740	238.53377	17.53357	
1517	7.580	-138.46146	364.35904	259.41806	-233.52733	391.00684	387.52106	-164.80945	211.58400	313.60342	-58.20247	212.53723	154.12540	-33.61948	176.15526	42.70468	69.37809	202.70567	87.09180	222.09967	238.92249	103.50896	347.23447	258.81662	136.99358	-49.27475	260.93921	23.29868	228.10686	238.38899	18.43494	
1518	7.585	-138.46146	364.35904	259.41806	-233.25551	391.34366	387.56345	-164.84920	211.86945	313.42111	-59.16929	212.58069	153.78922	-33.61948	176.15526	42.70468	69.04289	202.81593	86.85183	221.75938	239.50371	103.55312	346.34525	259.01114	138.24577	-48.95822	261.98825	23.69990	228.10686	238.38899	18.43494	
1519	7.590	-138.72693	364.58102	259.21460	-233.45636	391.84457	387.77002	-164.84920	211.86945	313.42111	-59.16929	212.58069	153.78922	-33.61948	176.15526	42.70468	68.56596	203.34952	87.20044	221.75085	240.32614	103.85170	346.31107	258.95145	138.35298	-49.05757	261.93930	23.65372	228.15613	238.29166	18.95042	
1520	7.595	-138.71480	364.84705	259.02322	-233.21323	392.27991	387.69016	-164.04099	212.14149	313.25919	-59.16929	212.58069	153.78922	-33.61948	176.15526	42.70468	68.19266	204.23050	87.39783	221.77504	240.27914	104.02615	345.77795	259.62979	138.74434	-49.15691	261.89035	23.60755	227.62277	238.26695	19.26059	
1521	7.600	-138.36517	365.51102	259.10526	-233.10298	392.34341	387.77188	-163.27429	212.65994	313.11139	-59.16929	212.58069	153.78922	-33.61948	176.15526	42.70468	67.75262	204.12234	86.96736	221.49109	241.03264	104.20452	346.08731	260.90781	138.71880	-49.25626	261.84140	23.56138	227.31642	238.76677	19.16206	
1522	7.605	-138.44368	365.78677	258.91214	-232.84706	392.90326	387.59836	-163.10269	213.05562	313.05624	-59.31245	212.79449	153.82080	-34.20177	176.54344	42.27726	67.92329	204.65553	87.09299	221.33044	240.73534	104.04881	345.07138	260.95047	139.81300	-49.35560	261.79245	23.51520	226.33118	238.96721	19.68095	
